<?xml version="1.0" encoding="UTF-8" standalone="no"?>
<svg version="1.1" xmlns="http://www.w3.org/2000/svg" xmlns:xlink="http://www.w3.org/1999/xlink" width="180.645" height="180.645">
	<g id="dp_dp001" transform="matrix(1,0,0,1,-57.1107,-53.908)">
		<path id="dp_path002" fill="none" fill-rule="evenodd" stroke="#404040" stroke-width="5.33333" d="M 147.276,56.5787 C 195.597,56.5787 234.771,95.752 234.771,144.075 C 234.771,192.397 195.597,231.571 147.276,231.571 C 98.9547,231.571 59.7813,192.397 59.7813,144.075 C 59.7813,95.752 98.9547,56.5787 147.276,56.5787 Z "/>
		<path id="dp_path003" fill="none" fill-rule="evenodd" stroke="#404040" stroke-width="5.33333" stroke-dasharray="5.33333,5.33333" d="M 107,87.5453 C 107,83.544 110.244,80.3 114.245,80.3 L 180.255,80.3 C 184.256,80.3 187.5,83.544 187.5,87.5453 L 187.5,199.053 C 187.5,203.055 184.256,206.299 180.255,206.299 L 114.245,206.299 C 110.244,206.299 107,203.055 107,199.053 Z "/>
		<path id="dp_path004" fill="none" fill-rule="evenodd" stroke="#404040" stroke-width="6" d="M 150,175.461 C 150,173.772 151.371,172.401 153.06,172.401 L 184.34,172.401 C 186.029,172.401 187.4,173.772 187.4,175.461 L 187.4,203.34 C 187.4,205.029 186.029,206.4 184.34,206.4 L 153.06,206.4 C 151.371,206.4 150,205.029 150,203.34 Z "/>
	</g>
</svg>