<?xml version="1.0" encoding="UTF-8" standalone="no"?>
<svg version="1.1" xmlns="http://www.w3.org/2000/svg" xmlns:xlink="http://www.w3.org/1999/xlink" width="180.645" height="180.645">
	<g id="dp_dp001" transform="matrix(1,0,0,1,-623.911,-54.308)">
		<path id="dp_path002" fill="none" fill-rule="evenodd" stroke="#404040" stroke-width="5.33333" d="M 714.076,56.9787 C 762.397,56.9787 801.571,96.152 801.571,144.475 C 801.571,192.797 762.397,231.971 714.076,231.971 C 665.755,231.971 626.581,192.797 626.581,144.475 C 626.581,96.152 665.755,56.9787 714.076,56.9787 Z "/>
		<path id="dp_path003" fill="none" fill-rule="evenodd" stroke="#404040" stroke-width="6" d="M 673.8,87.9453 C 673.8,83.944 677.044,80.7 681.045,80.7 L 747.055,80.7 C 751.056,80.7 754.3,83.944 754.3,87.9453 L 754.3,199.453 C 754.3,203.455 751.056,206.699 747.055,206.699 L 681.045,206.699 C 677.044,206.699 673.8,203.455 673.8,199.453 Z "/>
	</g>
</svg>