<?xml version="1.0" encoding="UTF-8" standalone="no"?>
<svg version="1.1" xmlns="http://www.w3.org/2000/svg" xmlns:xlink="http://www.w3.org/1999/xlink" width="180.645" height="180.645">
	<g id="dp_dp001" transform="matrix(1,0,0,1,-427.911,-52.308)">
		<path id="dp_path002" fill="none" fill-rule="evenodd" stroke="#404040" stroke-width="5.33333" d="M 518.076,54.9787 C 566.397,54.9787 605.571,94.152 605.571,142.475 C 605.571,190.797 566.397,229.971 518.076,229.971 C 469.755,229.971 430.581,190.797 430.581,142.475 C 430.581,94.152 469.755,54.9787 518.076,54.9787 Z "/>
		<path id="dp_path003" fill="none" fill-rule="evenodd" stroke="#404040" stroke-width="5.33333" stroke-dasharray="5.33333,5.33333" d="M 477.8,85.9453 C 477.8,81.944 481.044,78.7 485.045,78.7 L 551.055,78.7 C 555.056,78.7 558.3,81.944 558.3,85.9453 L 558.3,197.453 C 558.3,201.455 555.056,204.699 551.055,204.699 L 485.045,204.699 C 481.044,204.699 477.8,201.455 477.8,197.453 Z "/>
		<path id="dp_path004" fill="none" fill-rule="evenodd" stroke="#404040" stroke-width="6" d="M 478.219,148.961 C 478.219,145.939 480.668,143.489 483.691,143.489 L 553.18,143.489 C 556.203,143.489 558.652,145.939 558.652,148.961 L 558.652,198.817 C 558.652,201.84 556.203,204.289 553.18,204.289 L 483.691,204.289 C 480.668,204.289 478.219,201.84 478.219,198.817 Z "/>
	</g>
</svg>