<?xml version="1.0" encoding="UTF-8" standalone="no"?>
<svg version="1.1" xmlns="http://www.w3.org/2000/svg" xmlns:xlink="http://www.w3.org/1999/xlink" width="180.645" height="180.645">
	<g id="dp_dp001" transform="matrix(1,0,0,1,-432.521,-245.543)">
		<path id="dp_path002" fill="none" fill-rule="evenodd" stroke="#404040" stroke-width="5.33333" d="M 522.687,248.213 C 571.008,248.213 610.181,287.387 610.181,335.709 C 610.181,384.032 571.008,423.205 522.687,423.205 C 474.365,423.205 435.192,384.032 435.192,335.709 C 435.192,287.387 474.365,248.213 522.687,248.213 Z "/>
		<path id="dp_path003" fill="none" fill-rule="evenodd" stroke="#404040" stroke-width="5.33333" stroke-dasharray="5.33333,5.33333" d="M 482.411,279.18 C 482.411,275.179 485.655,271.935 489.656,271.935 L 555.665,271.935 C 559.667,271.935 562.911,275.179 562.911,279.18 L 562.911,390.688 C 562.911,394.689 559.667,397.933 555.665,397.933 L 489.656,397.933 C 485.655,397.933 482.411,394.689 482.411,390.688 Z "/>
		<path id="dp_path004" fill="none" fill-rule="evenodd" stroke="#404040" stroke-width="6" d="M 525.011,275.421 C 525.011,273.532 526.541,272.001 528.431,272.001 L 559.591,272.001 C 561.48,272.001 563.011,273.532 563.011,275.421 L 563.011,394.612 C 563.011,396.501 561.48,398.032 559.591,398.032 L 528.431,398.032 C 526.541,398.032 525.011,396.501 525.011,394.612 Z "/>
	</g>
</svg>