<?xml version="1.0" encoding="UTF-8" standalone="no"?>
<svg version="1.1" xmlns="http://www.w3.org/2000/svg" xmlns:xlink="http://www.w3.org/1999/xlink" width="180.645" height="180.645">
	<g id="dp_dp001" transform="matrix(1,0,0,1,-238.711,-50.308)">
		<path id="dp_path002" fill="none" fill-rule="evenodd" stroke="#404040" stroke-width="5.33333" d="M 328.876,52.9787 C 377.197,52.9787 416.371,92.152 416.371,140.475 C 416.371,188.797 377.197,227.971 328.876,227.971 C 280.555,227.971 241.381,188.797 241.381,140.475 C 241.381,92.152 280.555,52.9787 328.876,52.9787 Z "/>
		<path id="dp_path003" fill="none" fill-rule="evenodd" stroke="#404040" stroke-width="5.33333" stroke-dasharray="5.33333,5.33333" d="M 288.6,83.9453 C 288.6,79.944 291.844,76.7 295.845,76.7 L 361.855,76.7 C 365.856,76.7 369.1,79.944 369.1,83.9453 L 369.1,195.453 C 369.1,199.455 365.856,202.699 361.855,202.699 L 295.845,202.699 C 291.844,202.699 288.6,199.455 288.6,195.453 Z "/>
		<path id="dp_path004" fill="none" fill-rule="evenodd" stroke="#404040" stroke-width="6" d="M 331.2,145.42 C 331.2,143.531 332.731,142 334.62,142 L 365.78,142 C 367.669,142 369.2,143.531 369.2,145.42 L 369.2,199.38 C 369.2,201.269 367.669,202.8 365.78,202.8 L 334.62,202.8 C 332.731,202.8 331.2,201.269 331.2,199.38 Z "/>
	</g>
</svg>