<?xml version="1.0" encoding="UTF-8" standalone="no"?>
<svg version="1.1" xmlns="http://www.w3.org/2000/svg" xmlns:xlink="http://www.w3.org/1999/xlink" width="180.645" height="180.645">
	<g id="dp_dp001" transform="matrix(1,0,0,1,-241.496,-245.768)">
		<path id="dp_path002" fill="none" fill-rule="evenodd" stroke="#404040" stroke-width="5.33333" d="M 331.661,248.439 C 379.983,248.439 419.156,287.612 419.156,335.935 C 419.156,384.257 379.983,423.431 331.661,423.431 C 283.34,423.431 244.167,384.257 244.167,335.935 C 244.167,287.612 283.34,248.439 331.661,248.439 Z "/>
		<path id="dp_path003" fill="none" fill-rule="evenodd" stroke="#404040" stroke-width="5.33333" stroke-dasharray="5.33333,5.33333" d="M 291.385,279.405 C 291.385,275.404 294.629,272.16 298.631,272.16 L 364.64,272.16 C 368.641,272.16 371.885,275.404 371.885,279.405 L 371.885,390.913 C 371.885,394.915 368.641,398.159 364.64,398.159 L 298.631,398.159 C 294.629,398.159 291.385,394.915 291.385,390.913 Z "/>
		<path id="dp_path004" fill="none" fill-rule="evenodd" stroke="#404040" stroke-width="6" d="M 291.7,367.121 C 291.7,365.432 293.071,364.061 294.76,364.061 L 368.568,364.061 C 370.257,364.061 371.628,365.432 371.628,367.121 L 371.628,395 C 371.628,396.689 370.257,398.06 368.568,398.06 L 294.76,398.06 C 293.071,398.06 291.7,396.689 291.7,395 Z "/>
	</g>
</svg>