<?xml version="1.0" encoding="UTF-8" standalone="no"?>
<svg version="1.1" xmlns="http://www.w3.org/2000/svg" xmlns:xlink="http://www.w3.org/1999/xlink" width="1222.19" height="330.323">
	<g id="dp_dp001" transform="matrix(1,0,0,1,-45.884,-72.6533)">
		<image id="dp_image002" fill="none" x="14.916" y="50.976" width="1253.16" height="352" xlink:href="DrawCB6F_images/DrawCB6F_001.png"/>
		<path id="dp_path003" fill="white" fill-rule="evenodd" stroke="black" stroke-width="2.66667" d="M 408.069,346.501 C 404.852,350.259 401.224,353.74 397.187,356.948 C 377.353,372.723 348.98,380.628 312.065,380.628 L 180.432,380.628 L 180.432,84.1173 L 302.996,84.1173 C 357.164,84.1173 392.193,96.06 408.069,119.972 L 408.069,84.1173 L 495.024,84.1173 L 495.024,310.753 L 541.992,310.753 C 541.584,310.028 541.183,309.299 540.787,308.564 C 528.435,285.768 522.259,259.971 522.259,231.137 C 522.259,200.964 528.507,173.789 540.964,149.652 C 553.456,125.549 570.96,106.915 593.511,93.7507 C 616.061,80.5893 641.681,73.988 670.373,73.988 C 698.041,73.988 722.744,80.3053 744.555,92.9053 C 755.868,99.4587 765.843,107.447 774.484,116.88 C 783.497,107.953 793.763,100.301 805.276,93.9293 C 829.273,80.6227 856.907,73.988 888.173,73.988 C 913.123,73.988 937.299,77.0947 960.625,83.3053 L 960.625,165.813 C 952.577,160.839 942.979,156.992 931.863,154.204 C 920.712,151.452 909.453,150.076 898.055,150.076 C 874.444,150.076 855.811,157.064 842.189,170.968 C 828.779,184.688 821.969,203.199 821.761,226.495 C 821.757,226.864 821.756,227.235 821.756,227.608 C 821.756,251.324 828.567,270.064 842.189,283.756 C 855.811,297.483 874.021,304.329 896.853,304.329 C 917.888,304.329 939.168,298.824 960.625,287.813 L 960.625,367.395 C 936.767,376.216 909.172,380.628 877.903,380.628 C 847.2,380.628 820.699,374.628 798.429,362.56 C 787.251,356.5 777.397,349.16 768.871,340.536 C 760.848,348.44 751.837,355.3 741.836,361.113 C 719.428,374.133 694.336,380.628 666.561,380.628 C 640.207,380.628 616.155,374.688 594.439,362.743 L 594.439,380.628 L 408.069,380.628 Z M 334.616,289.225 C 334.616,280.685 331.581,273.663 325.547,268.121 C 319.512,262.616 311.536,259.864 301.619,259.864 L 267.387,259.864 L 267.387,320.457 L 296.361,320.457 C 308.184,320.457 317.499,317.669 324.345,312.095 C 331.192,306.483 334.616,298.896 334.616,289.225 Z M 408.069,245.424 C 403.727,240.987 398.703,237.009 392.985,233.503 C 382.116,226.832 369.836,222.633 356.144,221.008 L 356.144,220.163 C 367.964,217.832 378.8,213.421 388.645,206.928 C 396.876,201.519 403.344,195.4 408.069,188.509 Z M 720.699,228.879 C 720.699,204.456 716.143,185.221 707.005,171.18 C 697.9,157.097 685.407,150.076 669.596,150.076 C 652.269,150.076 638.788,156.851 629.119,170.332 C 619.484,183.849 614.649,202.94 614.649,227.608 C 614.649,251.747 619.451,270.556 629.012,284.073 C 638.612,297.589 651.669,304.329 668.185,304.329 C 678.243,304.329 687.312,301.295 695.36,295.26 C 703.405,289.191 709.652,280.509 714.064,269.181 C 718.509,257.887 720.699,244.441 720.699,228.879 Z M 325.547,171.355 C 325.547,153.039 311.536,143.864 283.48,143.864 L 267.387,143.864 L 267.387,199.904 L 292.549,199.904 C 302.22,199.904 310.124,197.259 316.3,191.931 C 322.476,186.636 325.547,179.791 325.547,171.355 Z "/>
		<path id="dp_path004" fill="white" fill-rule="evenodd" stroke="black" stroke-width="2.66667" d="M 1130.11,380.628 L 1066.09,255.311 C 1061.79,245.395 1059.24,238.583 1058.43,234.843 L 1057.44,234.843 L 1057.44,380.628 L 970.489,380.628 L 970.489,84.1173 L 1057.44,84.1173 L 1057.44,225.137 L 1058.43,225.137 C 1061.01,217.692 1063.87,210.773 1067.11,204.459 L 1124.67,84.1173 L 1227.72,84.1173 L 1145.81,225.527 L 1235.56,380.628 Z "/>
	</g>
	<text id="dp_text005" transform="matrix(4.3513e-016,-1.53606,1,2.83277e-016,128.414,306.31)" xml:space="preserve" fill="white" stroke="black" stroke-width="2.66667" font-family="Impact" font-size="127" font-weight="400" font-style="italic" x="0" y="-0.00266667">the</text>
</svg>